<mxfile modified="2022-01-02T07:33:36.462Z" host="app.diagrams.net" agent="5.0 (Windows NT 10.0; Win64; x64) AppleWebKit/537.36 (KHTML, like Gecko) Chrome/96.0.4664.110 Safari/537.36" etag="HkKM8eMKQo2MNVCLYPfq" version="16.1.2" type="github">
  <diagram id="Ht1M8jgEwFfnCIfOTk4-" name="Page-1">
    <mxGraphModel dx="2591" dy="834" grid="1" gridSize="10" guides="1" tooltips="1" connect="1" arrows="1" fold="1" page="1" pageScale="1" pageWidth="1169" pageHeight="827" math="0" shadow="0">
      <root>
        <mxCell id="0" />
        <mxCell id="1" parent="0" />
        <mxCell id="24ib-LdrBKBhXYgPnSqK-10" value="In the same AWS Organization                                                                                                                              " style="fillColor=none;strokeColor=#5A6C86;dashed=1;verticalAlign=top;fontStyle=0;fontColor=#5A6C86;" parent="1" vertex="1">
          <mxGeometry x="-1150" y="40" width="600" height="636.75" as="geometry" />
        </mxCell>
        <mxCell id="7NBj9qlON9shgXfnsOWw-2" value="IPAM" style="fillColor=none;strokeColor=#5A6C86;dashed=1;verticalAlign=top;fontStyle=0;fontColor=#5A6C86;" parent="1" vertex="1">
          <mxGeometry x="-1120" y="176.75" width="540" height="360" as="geometry" />
        </mxCell>
        <mxCell id="vV3kP8_P8c0JdKtfFnim-1" value="" style="verticalAlign=top;fontStyle=0;fillColor=default;strokeWidth=1;strokeColor=#007FFF;" parent="1" vertex="1">
          <mxGeometry x="-1089.4299999999998" y="208" width="370" height="297.5" as="geometry" />
        </mxCell>
        <mxCell id="7NBj9qlON9shgXfnsOWw-4" value="Private Scope" style="verticalAlign=top;fontStyle=0;fillColor=default;strokeWidth=1;strokeColor=#007FFF;" parent="1" vertex="1">
          <mxGeometry x="-1100" y="219.25" width="370" height="297.5" as="geometry" />
        </mxCell>
        <mxCell id="z9ZJdVr1mk5tYfEpuRM7-7" value="Pools (Sub-Level)&#xa;&#xa;Can be Region-specific" style="fillColor=#EFF0F3;strokeColor=default;dashed=0;verticalAlign=top;fontStyle=0;fontColor=#232F3D;" parent="1" vertex="1">
          <mxGeometry x="-1080" y="346.75" width="140" height="56.5" as="geometry" />
        </mxCell>
        <mxCell id="24ib-LdrBKBhXYgPnSqK-15" style="edgeStyle=orthogonalEdgeStyle;rounded=0;orthogonalLoop=1;jettySize=auto;html=1;startArrow=classic;startFill=1;" parent="1" source="7NBj9qlON9shgXfnsOWw-3" target="7NBj9qlON9shgXfnsOWw-2" edge="1">
          <mxGeometry relative="1" as="geometry" />
        </mxCell>
        <mxCell id="7NBj9qlON9shgXfnsOWw-3" value="AWS Account (Delegated Administrator)" style="points=[[0,0],[0.25,0],[0.5,0],[0.75,0],[1,0],[1,0.25],[1,0.5],[1,0.75],[1,1],[0.75,1],[0.5,1],[0.25,1],[0,1],[0,0.75],[0,0.5],[0,0.25]];outlineConnect=0;gradientColor=none;html=1;whiteSpace=wrap;fontSize=12;fontStyle=0;shape=mxgraph.aws4.group;grIcon=mxgraph.aws4.group_aws_cloud_alt;strokeColor=#232F3E;fillColor=none;verticalAlign=top;align=left;spacingLeft=30;fontColor=#232F3E;dashed=0;" parent="1" vertex="1">
          <mxGeometry x="-955" y="75.25" width="210" height="70.5" as="geometry" />
        </mxCell>
        <mxCell id="-QjtrjUzRDEMRZ5MF8oH-9" value="1" style="rounded=1;whiteSpace=wrap;html=1;fillColor=#007CBD;strokeColor=none;fontColor=#FFFFFF;fontStyle=1;fontSize=22;" parent="1" vertex="1">
          <mxGeometry x="-780" y="86" width="40" height="38" as="geometry" />
        </mxCell>
        <mxCell id="-QjtrjUzRDEMRZ5MF8oH-27" value="2" style="rounded=1;whiteSpace=wrap;html=1;fillColor=#007CBD;strokeColor=none;fontColor=#FFFFFF;fontStyle=1;fontSize=22;" parent="1" vertex="1">
          <mxGeometry x="-1010" y="154.25" width="40" height="38" as="geometry" />
        </mxCell>
        <mxCell id="7NBj9qlON9shgXfnsOWw-1" value="Service-Linked Role for IPAM" style="outlineConnect=0;fontColor=#232F3E;gradientColor=none;fillColor=#C7131F;strokeColor=none;dashed=0;verticalLabelPosition=bottom;verticalAlign=top;align=center;html=1;fontSize=12;fontStyle=0;aspect=fixed;pointerEvents=1;shape=mxgraph.aws4.role;" parent="1" vertex="1">
          <mxGeometry x="-855" y="97" width="47.86" height="27" as="geometry" />
        </mxCell>
        <mxCell id="7NBj9qlON9shgXfnsOWw-5" value="Public Scope" style="verticalAlign=top;fontStyle=0;fontColor=#333333;fillColor=none;strokeColor=#FF8000;" parent="1" vertex="1">
          <mxGeometry x="-700" y="219.25" width="100" height="297.5" as="geometry" />
        </mxCell>
        <mxCell id="z9ZJdVr1mk5tYfEpuRM7-1" value="Pool (Top-Level)&#xa;&#xa;Not Region-specific" style="fillColor=#EFF0F3;strokeColor=none;dashed=0;verticalAlign=top;fontStyle=0;fontColor=#232F3D;" parent="1" vertex="1">
          <mxGeometry x="-1040" y="262.25" width="220" height="54.5" as="geometry" />
        </mxCell>
        <mxCell id="z9ZJdVr1mk5tYfEpuRM7-2" value="Pools (Sub-Level)&#xa;&#xa;Can be Region-specific" style="fillColor=#EFF0F3;strokeColor=default;dashed=0;verticalAlign=top;fontStyle=0;fontColor=#232F3D;" parent="1" vertex="1">
          <mxGeometry x="-1080" y="438.25" width="140" height="56.5" as="geometry" />
        </mxCell>
        <mxCell id="24ib-LdrBKBhXYgPnSqK-2" value="Pools (Sub-Level)&#xa;&#xa;Can be Region-specific" style="fillColor=#EFF0F3;strokeColor=default;dashed=0;verticalAlign=top;fontStyle=0;fontColor=#232F3D;" parent="1" vertex="1">
          <mxGeometry x="-900" y="333.5" width="140" height="56.5" as="geometry" />
        </mxCell>
        <mxCell id="24ib-LdrBKBhXYgPnSqK-1" value="Pools (Sub-Level)&#xa;&#xa;Can be Region-specific" style="fillColor=#EFF0F3;strokeColor=default;dashed=0;verticalAlign=top;fontStyle=0;fontColor=#232F3D;" parent="1" vertex="1">
          <mxGeometry x="-916.0699999999999" y="346.75" width="140" height="56.5" as="geometry" />
        </mxCell>
        <mxCell id="24ib-LdrBKBhXYgPnSqK-4" value="Pools (Sub-Level)&#xa;&#xa;Can be Region-specific" style="fillColor=#EFF0F3;strokeColor=default;dashed=0;verticalAlign=top;fontStyle=0;fontColor=#232F3D;" parent="1" vertex="1">
          <mxGeometry x="-900" y="429" width="140" height="56.5" as="geometry" />
        </mxCell>
        <mxCell id="24ib-LdrBKBhXYgPnSqK-3" value="Pools (Sub-Level)&#xa;&#xa;Can be Region-specific" style="fillColor=#EFF0F3;strokeColor=default;dashed=0;verticalAlign=top;fontStyle=0;fontColor=#232F3D;" parent="1" vertex="1">
          <mxGeometry x="-916.0699999999999" y="440.75" width="140" height="56.5" as="geometry" />
        </mxCell>
        <mxCell id="24ib-LdrBKBhXYgPnSqK-18" value="Shared via RAM" style="rounded=0;orthogonalLoop=1;jettySize=auto;html=1;startArrow=classic;startFill=1;endArrow=none;endFill=0;" parent="1" source="24ib-LdrBKBhXYgPnSqK-8" target="24ib-LdrBKBhXYgPnSqK-3" edge="1">
          <mxGeometry relative="1" as="geometry" />
        </mxCell>
        <mxCell id="24ib-LdrBKBhXYgPnSqK-8" value="AWS Account" style="points=[[0,0],[0.25,0],[0.5,0],[0.75,0],[1,0],[1,0.25],[1,0.5],[1,0.75],[1,1],[0.75,1],[0.5,1],[0.25,1],[0,1],[0,0.75],[0,0.5],[0,0.25]];outlineConnect=0;gradientColor=none;html=1;whiteSpace=wrap;fontSize=12;fontStyle=0;shape=mxgraph.aws4.group;grIcon=mxgraph.aws4.group_aws_cloud_alt;strokeColor=#232F3E;fillColor=none;verticalAlign=top;align=left;spacingLeft=30;fontColor=#232F3E;dashed=0;" parent="1" vertex="1">
          <mxGeometry x="-938" y="596.37" width="175" height="70.5" as="geometry" />
        </mxCell>
        <mxCell id="24ib-LdrBKBhXYgPnSqK-9" value="Service-Linked Role for IPAM" style="outlineConnect=0;fontColor=#232F3E;gradientColor=none;fillColor=#C7131F;strokeColor=none;dashed=0;verticalLabelPosition=bottom;verticalAlign=top;align=center;html=1;fontSize=12;fontStyle=0;aspect=fixed;pointerEvents=1;shape=mxgraph.aws4.role;" parent="1" vertex="1">
          <mxGeometry x="-871.9300000000001" y="618.12" width="47.86" height="27" as="geometry" />
        </mxCell>
        <mxCell id="24ib-LdrBKBhXYgPnSqK-16" value="Shared via RAM" style="rounded=0;orthogonalLoop=1;jettySize=auto;html=1;startArrow=classic;startFill=1;endArrow=none;endFill=0;" parent="1" source="24ib-LdrBKBhXYgPnSqK-11" target="z9ZJdVr1mk5tYfEpuRM7-2" edge="1">
          <mxGeometry relative="1" as="geometry" />
        </mxCell>
        <mxCell id="24ib-LdrBKBhXYgPnSqK-11" value="AWS Account" style="points=[[0,0],[0.25,0],[0.5,0],[0.75,0],[1,0],[1,0.25],[1,0.5],[1,0.75],[1,1],[0.75,1],[0.5,1],[0.25,1],[0,1],[0,0.75],[0,0.5],[0,0.25]];outlineConnect=0;gradientColor=none;html=1;whiteSpace=wrap;fontSize=12;fontStyle=0;shape=mxgraph.aws4.group;grIcon=mxgraph.aws4.group_aws_cloud_alt;strokeColor=#232F3E;fillColor=none;verticalAlign=top;align=left;spacingLeft=30;fontColor=#232F3E;dashed=0;" parent="1" vertex="1">
          <mxGeometry x="-1130.5" y="594.62" width="175" height="70.5" as="geometry" />
        </mxCell>
        <mxCell id="24ib-LdrBKBhXYgPnSqK-12" value="Service-Linked Role for IPAM" style="outlineConnect=0;fontColor=#232F3E;gradientColor=none;fillColor=#C7131F;strokeColor=none;dashed=0;verticalLabelPosition=bottom;verticalAlign=top;align=center;html=1;fontSize=12;fontStyle=0;aspect=fixed;pointerEvents=1;shape=mxgraph.aws4.role;" parent="1" vertex="1">
          <mxGeometry x="-1064.43" y="616.37" width="47.86" height="27" as="geometry" />
        </mxCell>
        <mxCell id="24ib-LdrBKBhXYgPnSqK-19" value="Shared via RAM" style="rounded=0;orthogonalLoop=1;jettySize=auto;html=1;startArrow=classic;startFill=1;endArrow=none;endFill=0;entryX=1;entryY=1;entryDx=0;entryDy=0;" parent="1" source="24ib-LdrBKBhXYgPnSqK-13" target="24ib-LdrBKBhXYgPnSqK-4" edge="1">
          <mxGeometry relative="1" as="geometry" />
        </mxCell>
        <mxCell id="24ib-LdrBKBhXYgPnSqK-13" value="AWS Account" style="points=[[0,0],[0.25,0],[0.5,0],[0.75,0],[1,0],[1,0.25],[1,0.5],[1,0.75],[1,1],[0.75,1],[0.5,1],[0.25,1],[0,1],[0,0.75],[0,0.5],[0,0.25]];outlineConnect=0;gradientColor=none;html=1;whiteSpace=wrap;fontSize=12;fontStyle=0;shape=mxgraph.aws4.group;grIcon=mxgraph.aws4.group_aws_cloud_alt;strokeColor=#232F3E;fillColor=none;verticalAlign=top;align=left;spacingLeft=30;fontColor=#232F3E;dashed=0;" parent="1" vertex="1">
          <mxGeometry x="-745.5" y="596.37" width="175" height="70.5" as="geometry" />
        </mxCell>
        <mxCell id="24ib-LdrBKBhXYgPnSqK-14" value="Service-Linked Role for IPAM" style="outlineConnect=0;fontColor=#232F3E;gradientColor=none;fillColor=#C7131F;strokeColor=none;dashed=0;verticalLabelPosition=bottom;verticalAlign=top;align=center;html=1;fontSize=12;fontStyle=0;aspect=fixed;pointerEvents=1;shape=mxgraph.aws4.role;" parent="1" vertex="1">
          <mxGeometry x="-679.4300000000001" y="618.12" width="47.86" height="27" as="geometry" />
        </mxCell>
        <mxCell id="-QjtrjUzRDEMRZ5MF8oH-28" value="3" style="rounded=1;whiteSpace=wrap;html=1;fillColor=#007CBD;strokeColor=none;fontColor=#FFFFFF;fontStyle=1;fontSize=22;" parent="1" vertex="1">
          <mxGeometry x="-730" y="246.75" width="40" height="38" as="geometry" />
        </mxCell>
        <mxCell id="-QjtrjUzRDEMRZ5MF8oH-29" value="4" style="rounded=1;whiteSpace=wrap;html=1;fillColor=#007CBD;strokeColor=none;fontColor=#FFFFFF;fontStyle=1;fontSize=22;" parent="1" vertex="1">
          <mxGeometry x="-860" y="263.25" width="40" height="38" as="geometry" />
        </mxCell>
        <mxCell id="-QjtrjUzRDEMRZ5MF8oH-30" value="5" style="rounded=1;whiteSpace=wrap;html=1;fillColor=#007CBD;strokeColor=none;fontColor=#FFFFFF;fontStyle=1;fontSize=22;" parent="1" vertex="1">
          <mxGeometry x="-950" y="402.75" width="40" height="38" as="geometry" />
        </mxCell>
        <mxCell id="-QjtrjUzRDEMRZ5MF8oH-31" value="6" style="rounded=1;whiteSpace=wrap;html=1;fillColor=#007CBD;strokeColor=none;fontColor=#FFFFFF;fontStyle=1;fontSize=22;" parent="1" vertex="1">
          <mxGeometry x="-935" y="522.75" width="40" height="38" as="geometry" />
        </mxCell>
        <mxCell id="6coVcCfbQeFWmNIsO8nA-1" value="BYOIP" style="text;html=1;strokeColor=none;fillColor=none;align=center;verticalAlign=middle;whiteSpace=wrap;rounded=0;" vertex="1" parent="1">
          <mxGeometry x="-680" y="353" width="60" height="30" as="geometry" />
        </mxCell>
        <mxCell id="6coVcCfbQeFWmNIsO8nA-2" value="7" style="rounded=1;whiteSpace=wrap;html=1;fillColor=#007CBD;strokeColor=none;fontColor=#FFFFFF;fontStyle=1;fontSize=22;" vertex="1" parent="1">
          <mxGeometry x="-604" y="590" width="40" height="38" as="geometry" />
        </mxCell>
      </root>
    </mxGraphModel>
  </diagram>
</mxfile>
